<svg xmlns="http://www.w3.org/2000/svg" viewBox="0 0 128 128" role="img" aria-labelledby="title desc">
  <title id="title">Quinta Esquina Jiu-Jitsu</title>
  <desc id="desc">Icono PWA para gestión de clases de Jiu-Jitsu</desc>
  <rect width="128" height="128" rx="18" ry="18" fill="#0f172a"/>
  <path d="M22 70c8-4 20-14 24-26h16c4 12 16 22 24 26v8c-8 4-20 14-24 26H46c-4-12-16-22-24-26z" fill="#0ea5e9"/>
  <path d="M38 78h52" stroke="#f8fafc" stroke-width="8" stroke-linecap="round"/>
  <path d="M44 62c6 8 6 24 0 32M84 62c-6 8-6 24 0 32" stroke="#e2e8f0" stroke-width="6" stroke-linecap="round"/>
  <circle cx="64" cy="46" r="14" fill="#f8fafc"/>
  <path d="M64 34c7 0 12 4 12 11s-5 11-12 11-12-4-12-11 5-11 12-11z" fill="#0ea5e9" opacity="0.9"/>
</svg>
